<svg xmlns="http://www.w3.org/2000/svg" xmlns:xlink="http://www.w3.org/1999/xlink" width="2000" zoomAndPan="magnify" viewBox="0 0 1500 1499.999933" height="2000" preserveAspectRatio="xMidYMid meet" version="1.0"><defs><g/><clipPath id="5fe83b6ad7"><path d="M 822 803 L 1068.609375 803 L 1068.609375 1050 L 822 1050 Z M 822 803 " clip-rule="nonzero"/></clipPath><clipPath id="86f408bd43"><path d="M 431.109375 175.097656 L 668 175.097656 L 668 1051.847656 L 431.109375 1051.847656 Z M 431.109375 175.097656 " clip-rule="nonzero"/></clipPath><clipPath id="2efe826231"><rect x="0" width="1298" y="0" height="281"/></clipPath></defs><g clip-path="url(#5fe83b6ad7)"><path fill="#000000" d="M 1068.300781 926.703125 C 1068.300781 928.714844 1068.25 930.722656 1068.152344 932.726562 C 1068.054688 934.734375 1067.90625 936.738281 1067.707031 938.738281 C 1067.511719 940.738281 1067.265625 942.730469 1066.972656 944.71875 C 1066.675781 946.707031 1066.332031 948.6875 1065.941406 950.65625 C 1065.546875 952.628906 1065.109375 954.589844 1064.621094 956.539062 C 1064.132812 958.488281 1063.597656 960.421875 1063.011719 962.347656 C 1062.429688 964.269531 1061.800781 966.175781 1061.125 968.066406 C 1060.445312 969.960938 1059.722656 971.835938 1058.953125 973.691406 C 1058.1875 975.546875 1057.371094 977.382812 1056.511719 979.199219 C 1055.65625 981.015625 1054.75 982.8125 1053.804688 984.582031 C 1052.855469 986.355469 1051.867188 988.105469 1050.835938 989.828125 C 1049.800781 991.550781 1048.726562 993.246094 1047.609375 994.917969 C 1046.496094 996.589844 1045.339844 998.230469 1044.140625 999.847656 C 1042.945312 1001.460938 1041.710938 1003.042969 1040.433594 1004.597656 C 1039.160156 1006.148438 1037.847656 1007.671875 1036.5 1009.160156 C 1035.148438 1010.648438 1033.765625 1012.105469 1032.34375 1013.523438 C 1030.925781 1014.945312 1029.46875 1016.332031 1027.980469 1017.679688 C 1026.492188 1019.03125 1024.972656 1020.34375 1023.417969 1021.617188 C 1021.867188 1022.890625 1020.28125 1024.128906 1018.667969 1025.324219 C 1017.054688 1026.523438 1015.414062 1027.679688 1013.742188 1028.792969 C 1012.070312 1029.910156 1010.375 1030.984375 1008.652344 1032.019531 C 1006.929688 1033.050781 1005.179688 1034.042969 1003.410156 1034.988281 C 1001.636719 1035.9375 999.84375 1036.839844 998.027344 1037.699219 C 996.210938 1038.558594 994.375 1039.371094 992.519531 1040.140625 C 990.664062 1040.910156 988.789062 1041.632812 986.898438 1042.308594 C 985.003906 1042.988281 983.097656 1043.617188 981.175781 1044.199219 C 979.253906 1044.785156 977.316406 1045.320312 975.367188 1045.808594 C 973.421875 1046.296875 971.460938 1046.734375 969.492188 1047.128906 C 967.519531 1047.519531 965.539062 1047.863281 963.554688 1048.160156 C 961.566406 1048.453125 959.574219 1048.699219 957.574219 1048.894531 C 955.574219 1049.09375 953.570312 1049.242188 951.566406 1049.339844 C 949.558594 1049.4375 947.550781 1049.488281 945.542969 1049.488281 C 943.53125 1049.488281 941.523438 1049.4375 939.519531 1049.339844 C 937.511719 1049.242188 935.507812 1049.09375 933.507812 1048.894531 C 931.507812 1048.699219 929.515625 1048.453125 927.527344 1048.160156 C 925.542969 1047.863281 923.5625 1047.519531 921.59375 1047.128906 C 919.621094 1046.734375 917.664062 1046.296875 915.714844 1045.808594 C 913.765625 1045.320312 911.828125 1044.785156 909.90625 1044.199219 C 907.984375 1043.617188 906.078125 1042.988281 904.183594 1042.308594 C 902.292969 1041.632812 900.417969 1040.910156 898.5625 1040.140625 C 896.707031 1039.371094 894.871094 1038.558594 893.054688 1037.699219 C 891.238281 1036.839844 889.445312 1035.9375 887.671875 1034.988281 C 885.902344 1034.042969 884.152344 1033.050781 882.429688 1032.019531 C 880.707031 1030.984375 879.011719 1029.910156 877.339844 1028.792969 C 875.671875 1027.679688 874.027344 1026.523438 872.414062 1025.324219 C 870.800781 1024.128906 869.21875 1022.890625 867.664062 1021.617188 C 866.113281 1020.34375 864.589844 1019.03125 863.101562 1017.679688 C 861.613281 1016.332031 860.160156 1014.945312 858.738281 1013.523438 C 857.316406 1012.105469 855.933594 1010.648438 854.582031 1009.160156 C 853.234375 1007.671875 851.921875 1006.148438 850.648438 1004.597656 C 849.375 1003.042969 848.136719 1001.460938 846.941406 999.847656 C 845.746094 998.230469 844.585938 996.589844 843.472656 994.917969 C 842.355469 993.246094 841.28125 991.550781 840.25 989.828125 C 839.214844 988.105469 838.226562 986.355469 837.277344 984.582031 C 836.332031 982.8125 835.429688 981.015625 834.570312 979.199219 C 833.710938 977.382812 832.894531 975.546875 832.128906 973.691406 C 831.359375 971.835938 830.636719 969.960938 829.960938 968.066406 C 829.28125 966.175781 828.652344 964.269531 828.070312 962.347656 C 827.484375 960.421875 826.949219 958.488281 826.460938 956.539062 C 825.972656 954.589844 825.535156 952.628906 825.140625 950.65625 C 824.75 948.6875 824.40625 946.707031 824.113281 944.71875 C 823.816406 942.730469 823.570312 940.738281 823.375 938.738281 C 823.175781 936.738281 823.03125 934.734375 822.929688 932.726562 C 822.832031 930.722656 822.78125 928.714844 822.78125 926.703125 C 822.78125 924.695312 822.832031 922.6875 822.929688 920.679688 C 823.03125 918.671875 823.175781 916.667969 823.375 914.667969 C 823.570312 912.667969 823.816406 910.675781 824.113281 908.6875 C 824.40625 906.699219 824.75 904.71875 825.140625 902.75 C 825.535156 900.777344 825.972656 898.820312 826.460938 896.871094 C 826.949219 894.921875 827.484375 892.984375 828.070312 891.0625 C 828.652344 889.136719 829.28125 887.230469 829.960938 885.339844 C 830.636719 883.445312 831.359375 881.574219 832.128906 879.714844 C 832.894531 877.859375 833.710938 876.023438 834.570312 874.207031 C 835.429688 872.390625 836.332031 870.597656 837.277344 868.824219 C 838.226562 867.050781 839.214844 865.304688 840.25 863.582031 C 841.28125 861.855469 842.355469 860.160156 843.472656 858.488281 C 844.585938 856.816406 845.746094 855.175781 846.941406 853.5625 C 848.136719 851.949219 849.375 850.363281 850.648438 848.808594 C 851.921875 847.257812 853.234375 845.734375 854.582031 844.246094 C 855.933594 842.757812 857.316406 841.304688 858.738281 839.882812 C 860.160156 838.460938 861.613281 837.078125 863.101562 835.726562 C 864.589844 834.378906 866.113281 833.066406 867.664062 831.789062 C 869.21875 830.515625 870.800781 829.28125 872.414062 828.082031 C 874.027344 826.886719 875.671875 825.730469 877.339844 824.613281 C 879.011719 823.496094 880.707031 822.421875 882.429688 821.386719 C 884.152344 820.355469 885.902344 819.367188 887.671875 818.417969 C 889.445312 817.472656 891.238281 816.566406 893.054688 815.707031 C 894.871094 814.847656 896.707031 814.035156 898.5625 813.265625 C 900.417969 812.496094 902.292969 811.773438 904.183594 811.097656 C 906.078125 810.421875 907.984375 809.789062 909.90625 809.207031 C 911.828125 808.625 913.765625 808.085938 915.714844 807.597656 C 917.664062 807.109375 919.621094 806.671875 921.59375 806.277344 C 923.5625 805.886719 925.542969 805.542969 927.527344 805.25 C 929.515625 804.953125 931.507812 804.707031 933.507812 804.511719 C 935.507812 804.3125 937.511719 804.167969 939.519531 804.066406 C 941.523438 803.96875 943.53125 803.917969 945.542969 803.917969 C 947.550781 803.917969 949.558594 803.96875 951.566406 804.066406 C 953.570312 804.167969 955.574219 804.3125 957.574219 804.511719 C 959.574219 804.707031 961.566406 804.953125 963.554688 805.25 C 965.539062 805.542969 967.519531 805.886719 969.492188 806.277344 C 971.460938 806.671875 973.421875 807.109375 975.371094 807.601562 C 977.316406 808.085938 979.253906 808.625 981.175781 809.207031 C 983.097656 809.789062 985.003906 810.421875 986.898438 811.097656 C 988.789062 811.773438 990.664062 812.496094 992.519531 813.265625 C 994.375 814.035156 996.210938 814.847656 998.027344 815.707031 C 999.84375 816.566406 1001.636719 817.472656 1003.410156 818.417969 C 1005.179688 819.367188 1006.929688 820.355469 1008.652344 821.386719 C 1010.375 822.421875 1012.070312 823.496094 1013.742188 824.613281 C 1015.414062 825.730469 1017.054688 826.886719 1018.667969 828.082031 C 1020.28125 829.28125 1021.867188 830.515625 1023.417969 831.789062 C 1024.972656 833.066406 1026.492188 834.378906 1027.980469 835.726562 C 1029.46875 837.078125 1030.925781 838.460938 1032.34375 839.882812 C 1033.765625 841.304688 1035.148438 842.757812 1036.5 844.246094 C 1037.847656 845.734375 1039.160156 847.257812 1040.433594 848.808594 C 1041.710938 850.363281 1042.945312 851.949219 1044.140625 853.5625 C 1045.339844 855.175781 1046.496094 856.816406 1047.609375 858.488281 C 1048.726562 860.160156 1049.800781 861.855469 1050.835938 863.582031 C 1051.867188 865.304688 1052.855469 867.050781 1053.804688 868.824219 C 1054.75 870.597656 1055.65625 872.390625 1056.511719 874.207031 C 1057.371094 876.023438 1058.1875 877.859375 1058.953125 879.714844 C 1059.722656 881.574219 1060.445312 883.445312 1061.125 885.339844 C 1061.800781 887.230469 1062.429688 889.136719 1063.011719 891.0625 C 1063.597656 892.984375 1064.132812 894.921875 1064.621094 896.871094 C 1065.109375 898.820312 1065.546875 900.777344 1065.941406 902.75 C 1066.332031 904.71875 1066.675781 906.699219 1066.972656 908.6875 C 1067.265625 910.675781 1067.511719 912.667969 1067.707031 914.667969 C 1067.90625 916.667969 1068.054688 918.671875 1068.152344 920.679688 C 1068.25 922.6875 1068.300781 924.695312 1068.300781 926.703125 Z M 1068.300781 926.703125 " fill-opacity="1" fill-rule="nonzero"/></g><path fill="#000000" d="M 828.25 647.527344 L 828.25 915.601562 L 822.699219 915.601562 L 822.699219 647.527344 C 822.695312 645.890625 822.652344 644.257812 822.570312 642.625 C 822.484375 640.996094 822.363281 639.367188 822.199219 637.738281 C 822.035156 636.113281 821.832031 634.492188 821.589844 632.875 C 821.347656 631.261719 821.066406 629.652344 820.742188 628.050781 C 820.421875 626.445312 820.0625 624.851562 819.664062 623.269531 C 819.261719 621.683594 818.824219 620.109375 818.347656 618.546875 C 817.871094 616.984375 817.359375 615.433594 816.804688 613.894531 C 816.253906 612.359375 815.664062 610.832031 815.035156 609.324219 C 814.410156 607.816406 813.746094 606.324219 813.046875 604.847656 C 812.347656 603.371094 811.609375 601.910156 810.839844 600.46875 C 810.066406 599.03125 809.261719 597.609375 808.421875 596.207031 C 807.578125 594.808594 806.707031 593.425781 805.796875 592.070312 C 804.886719 590.710938 803.949219 589.375 802.972656 588.0625 C 802 586.75 800.996094 585.464844 799.957031 584.199219 C 798.921875 582.9375 797.851562 581.699219 796.757812 580.488281 C 795.660156 579.277344 794.53125 578.097656 793.378906 576.941406 C 792.222656 575.785156 791.039062 574.660156 789.828125 573.5625 C 788.617188 572.464844 787.382812 571.394531 786.117188 570.359375 C 784.855469 569.320312 783.570312 568.316406 782.257812 567.34375 C 780.945312 566.367188 779.609375 565.425781 778.253906 564.519531 C 776.894531 563.609375 775.515625 562.734375 774.113281 561.894531 C 772.714844 561.050781 771.292969 560.246094 769.851562 559.472656 C 768.410156 558.703125 766.953125 557.96875 765.476562 557.265625 C 764 556.566406 762.507812 555.902344 761 555.277344 C 759.492188 554.648438 757.96875 554.058594 756.429688 553.507812 C 754.890625 552.953125 753.34375 552.441406 751.777344 551.964844 C 750.214844 551.488281 748.644531 551.050781 747.058594 550.648438 C 745.472656 550.25 743.882812 549.890625 742.277344 549.566406 C 740.675781 549.246094 739.070312 548.964844 737.453125 548.722656 C 735.835938 548.480469 734.214844 548.277344 732.589844 548.113281 C 730.964844 547.949219 729.335938 547.824219 727.703125 547.742188 C 726.074219 547.660156 724.441406 547.613281 722.804688 547.613281 L 666.53125 547.613281 L 666.53125 542.0625 L 722.804688 542.0625 C 724.53125 542.0625 726.253906 542.109375 727.976562 542.199219 C 729.699219 542.285156 731.417969 542.417969 733.132812 542.589844 C 734.851562 542.761719 736.5625 542.976562 738.265625 543.230469 C 739.972656 543.488281 741.671875 543.785156 743.363281 544.125 C 745.054688 544.460938 746.734375 544.84375 748.40625 545.265625 C 750.078125 545.6875 751.742188 546.148438 753.390625 546.652344 C 755.039062 547.15625 756.675781 547.699219 758.300781 548.28125 C 759.921875 548.863281 761.53125 549.484375 763.125 550.148438 C 764.714844 550.808594 766.292969 551.511719 767.851562 552.25 C 769.410156 552.988281 770.949219 553.765625 772.46875 554.578125 C 773.988281 555.394531 775.488281 556.246094 776.964844 557.132812 C 778.445312 558.019531 779.902344 558.945312 781.335938 559.902344 C 782.769531 560.863281 784.179688 561.855469 785.5625 562.882812 C 786.949219 563.910156 788.304688 564.972656 789.640625 566.066406 C 790.972656 567.164062 792.277344 568.289062 793.554688 569.449219 C 794.832031 570.605469 796.082031 571.796875 797.300781 573.015625 C 798.519531 574.234375 799.710938 575.484375 800.867188 576.761719 C 802.027344 578.039062 803.152344 579.347656 804.246094 580.679688 C 805.339844 582.011719 806.402344 583.371094 807.429688 584.757812 C 808.457031 586.140625 809.453125 587.550781 810.410156 588.984375 C 811.371094 590.417969 812.292969 591.875 813.179688 593.355469 C 814.070312 594.832031 814.917969 596.332031 815.734375 597.855469 C 816.546875 599.375 817.324219 600.914062 818.0625 602.472656 C 818.800781 604.03125 819.503906 605.609375 820.164062 607.199219 C 820.824219 608.792969 821.449219 610.402344 822.03125 612.023438 C 822.613281 613.648438 823.15625 615.285156 823.660156 616.9375 C 824.164062 618.585938 824.625 620.246094 825.046875 621.917969 C 825.46875 623.59375 825.847656 625.273438 826.1875 626.964844 C 826.527344 628.65625 826.824219 630.355469 827.078125 632.0625 C 827.335938 633.769531 827.550781 635.480469 827.722656 637.195312 C 827.894531 638.910156 828.023438 640.632812 828.113281 642.355469 C 828.199219 644.078125 828.246094 645.800781 828.25 647.527344 Z M 828.25 647.527344 " fill-opacity="1" fill-rule="nonzero"/><g clip-path="url(#86f408bd43)"><path fill="#000000" d="M 667.921875 340.566406 L 667.921875 1051.820312 L 614.839844 1051.820312 C 611.835938 1051.816406 608.839844 1051.738281 605.84375 1051.589844 C 602.847656 1051.4375 599.855469 1051.214844 596.871094 1050.917969 C 593.886719 1050.621094 590.910156 1050.25 587.941406 1049.808594 C 584.972656 1049.367188 582.019531 1048.851562 579.078125 1048.261719 C 576.136719 1047.675781 573.210938 1047.015625 570.300781 1046.285156 C 567.390625 1045.554688 564.5 1044.75 561.628906 1043.878906 C 558.757812 1043.003906 555.910156 1042.0625 553.085938 1041.050781 C 550.265625 1040.039062 547.464844 1038.957031 544.695312 1037.808594 C 541.921875 1036.65625 539.183594 1035.441406 536.472656 1034.15625 C 533.757812 1032.871094 531.082031 1031.523438 528.433594 1030.105469 C 525.789062 1028.691406 523.179688 1027.210938 520.609375 1025.667969 C 518.035156 1024.125 515.5 1022.519531 513.007812 1020.851562 C 510.511719 1019.183594 508.0625 1017.457031 505.652344 1015.667969 C 503.242188 1013.882812 500.878906 1012.035156 498.558594 1010.132812 C 496.238281 1008.226562 493.96875 1006.269531 491.746094 1004.253906 C 489.523438 1002.238281 487.351562 1000.167969 485.230469 998.046875 C 483.109375 995.925781 481.039062 993.753906 479.023438 991.53125 C 477.007812 989.308594 475.050781 987.035156 473.144531 984.71875 C 471.242188 982.398438 469.398438 980.035156 467.609375 977.625 C 465.820312 975.214844 464.09375 972.761719 462.425781 970.265625 C 460.757812 967.773438 459.152344 965.238281 457.609375 962.664062 C 456.066406 960.09375 454.585938 957.484375 453.171875 954.835938 C 451.753906 952.191406 450.40625 949.511719 449.121094 946.800781 C 447.835938 944.089844 446.617188 941.347656 445.46875 938.574219 C 444.320312 935.804688 443.238281 933.007812 442.226562 930.179688 C 441.210938 927.355469 440.269531 924.507812 439.394531 921.636719 C 438.523438 918.765625 437.722656 915.878906 436.988281 912.964844 C 436.257812 910.054688 435.597656 907.128906 435.011719 904.1875 C 434.421875 901.246094 433.90625 898.289062 433.464844 895.320312 C 433.019531 892.355469 432.648438 889.378906 432.351562 886.390625 C 432.054688 883.40625 431.832031 880.414062 431.679688 877.417969 C 431.53125 874.417969 431.453125 871.421875 431.449219 868.421875 L 431.449219 175.097656 L 502.484375 175.097656 C 505.191406 175.101562 507.898438 175.167969 510.601562 175.304688 C 513.304688 175.441406 516 175.644531 518.695312 175.910156 C 521.386719 176.179688 524.074219 176.511719 526.75 176.914062 C 529.425781 177.3125 532.09375 177.777344 534.746094 178.308594 C 537.402344 178.839844 540.039062 179.433594 542.664062 180.09375 C 545.289062 180.753906 547.898438 181.476562 550.488281 182.265625 C 553.078125 183.054688 555.644531 183.902344 558.191406 184.816406 C 560.742188 185.730469 563.265625 186.707031 565.765625 187.746094 C 568.265625 188.78125 570.738281 189.878906 573.183594 191.039062 C 575.628906 192.195312 578.046875 193.414062 580.433594 194.691406 C 582.820312 195.96875 585.171875 197.304688 587.492188 198.695312 C 589.816406 200.089844 592.101562 201.539062 594.351562 203.042969 C 596.601562 204.546875 598.8125 206.105469 600.984375 207.71875 C 603.160156 209.332031 605.292969 211 607.382812 212.714844 C 609.476562 214.433594 611.523438 216.203125 613.53125 218.019531 C 615.535156 219.839844 617.496094 221.703125 619.410156 223.617188 C 621.324219 225.53125 623.1875 227.492188 625.007812 229.5 C 626.824219 231.503906 628.589844 233.554688 630.308594 235.644531 C 632.027344 237.738281 633.691406 239.871094 635.304688 242.046875 C 636.917969 244.21875 638.476562 246.433594 639.980469 248.683594 C 641.484375 250.933594 642.933594 253.21875 644.324219 255.539062 C 645.71875 257.863281 647.050781 260.214844 648.328125 262.601562 C 649.605469 264.988281 650.824219 267.40625 651.980469 269.851562 C 653.140625 272.300781 654.238281 274.773438 655.277344 277.273438 C 656.3125 279.773438 657.289062 282.300781 658.203125 284.847656 C 659.113281 287.394531 659.964844 289.964844 660.753906 292.554688 C 661.539062 295.144531 662.265625 297.753906 662.925781 300.378906 C 663.585938 303.003906 664.179688 305.644531 664.710938 308.296875 C 665.238281 310.953125 665.703125 313.617188 666.105469 316.296875 C 666.503906 318.972656 666.839844 321.660156 667.105469 324.355469 C 667.375 327.046875 667.574219 329.746094 667.710938 332.449219 C 667.847656 335.152344 667.917969 337.859375 667.921875 340.566406 Z M 667.921875 340.566406 " fill-opacity="1" fill-rule="nonzero"/></g><g transform="matrix(1, 0, 0, 1, 101, 1068)"><g clip-path="url(#2efe826231)"><g fill="#000000" fill-opacity="1"><g transform="translate(3.143663, 206.202053)"><g><path d="M 100.5625 0 L 100.5625 -54.84375 L 47.265625 -54.84375 L 47.265625 0 L 16.34375 0 L 16.34375 -136.15625 L 47.265625 -136.15625 L 47.265625 -83.828125 L 100.5625 -83.828125 L 100.5625 -136.15625 L 131.484375 -136.15625 L 131.484375 0 Z M 100.5625 0 "/></g></g></g><g fill="#000000" fill-opacity="1"><g transform="translate(150.966698, 206.202053)"><g><path d="M 14.78125 0 L 14.78125 -102.109375 L 44.34375 -102.109375 L 44.34375 0 Z M 10.5 -135.171875 C 10.5 -140.617188 12.28125 -145.0625 15.84375 -148.5 C 19.414062 -151.9375 23.988281 -153.65625 29.5625 -153.65625 C 35.269531 -153.65625 39.875 -151.9375 43.375 -148.5 C 46.875 -145.0625 48.625 -140.617188 48.625 -135.171875 C 48.625 -129.734375 46.875 -125.296875 43.375 -121.859375 C 39.875 -118.421875 35.269531 -116.703125 29.5625 -116.703125 C 23.988281 -116.703125 19.414062 -118.421875 15.84375 -121.859375 C 12.28125 -125.296875 10.5 -129.734375 10.5 -135.171875 Z M 10.5 -135.171875 "/></g></g></g><g fill="#000000" fill-opacity="1"><g transform="translate(210.095924, 206.202053)"><g><path d="M 76.640625 2.71875 C 70.285156 2.71875 64.382812 1.78125 58.9375 -0.09375 C 53.488281 -1.976562 48.625 -4.601562 44.34375 -7.96875 L 44.34375 38.90625 L 14.78125 38.90625 L 14.78125 -102.109375 L 36.765625 -102.109375 L 40.0625 -90.4375 C 44.601562 -94.976562 49.984375 -98.507812 56.203125 -101.03125 C 62.429688 -103.5625 69.242188 -104.828125 76.640625 -104.828125 C 86.878906 -104.828125 95.890625 -102.523438 103.671875 -97.921875 C 111.453125 -93.328125 117.578125 -87.007812 122.046875 -78.96875 C 126.523438 -70.925781 128.765625 -61.65625 128.765625 -51.15625 C 128.765625 -40.65625 126.523438 -31.351562 122.046875 -23.25 C 117.578125 -15.144531 111.453125 -8.789062 103.671875 -4.1875 C 95.890625 0.414062 86.878906 2.71875 76.640625 2.71875 Z M 43.171875 -51.15625 C 43.171875 -42.851562 45.796875 -36.039062 51.046875 -30.71875 C 56.304688 -25.40625 63.082031 -22.75 71.375 -22.75 C 79.8125 -22.75 86.617188 -25.40625 91.796875 -30.71875 C 96.984375 -36.039062 99.578125 -42.851562 99.578125 -51.15625 C 99.578125 -59.445312 96.984375 -66.25 91.796875 -71.5625 C 86.617188 -76.882812 79.8125 -79.546875 71.375 -79.546875 C 63.082031 -79.546875 56.304688 -76.882812 51.046875 -71.5625 C 45.796875 -66.25 43.171875 -59.445312 43.171875 -51.15625 Z M 43.171875 -51.15625 "/></g></g></g><g fill="#000000" fill-opacity="1"><g transform="translate(346.443243, 206.202053)"><g><path d="M 64.96875 2.71875 C 53.6875 2.71875 43.734375 0.453125 35.109375 -4.078125 C 26.484375 -8.617188 19.738281 -14.941406 14.875 -23.046875 C 10.007812 -31.148438 7.578125 -40.519531 7.578125 -51.15625 C 7.578125 -61.789062 10.007812 -71.125 14.875 -79.15625 C 19.738281 -87.195312 26.484375 -93.484375 35.109375 -98.015625 C 43.734375 -102.554688 53.6875 -104.828125 64.96875 -104.828125 C 76.25 -104.828125 86.195312 -102.554688 94.8125 -98.015625 C 103.4375 -93.484375 110.144531 -87.195312 114.9375 -79.15625 C 119.738281 -71.125 122.140625 -61.789062 122.140625 -51.15625 C 122.140625 -40.519531 119.738281 -31.148438 114.9375 -23.046875 C 110.144531 -14.941406 103.4375 -8.617188 94.8125 -4.078125 C 86.195312 0.453125 76.25 2.71875 64.96875 2.71875 Z M 36.765625 -51.15625 C 36.765625 -42.851562 39.390625 -36.039062 44.640625 -30.71875 C 49.890625 -25.40625 56.664062 -22.75 64.96875 -22.75 C 73.257812 -22.75 80 -25.40625 85.1875 -30.71875 C 90.375 -36.039062 92.96875 -42.851562 92.96875 -51.15625 C 92.96875 -59.582031 90.375 -66.421875 85.1875 -71.671875 C 80 -76.921875 73.257812 -79.546875 64.96875 -79.546875 C 56.664062 -79.546875 49.890625 -76.921875 44.640625 -71.671875 C 39.390625 -66.421875 36.765625 -59.582031 36.765625 -51.15625 Z M 36.765625 -51.15625 "/></g></g></g><g fill="#000000" fill-opacity="1"><g transform="translate(476.17741, 206.202053)"><g><path d="M 63.40625 2.71875 C 52.507812 2.71875 42.847656 0.414062 34.421875 -4.1875 C 25.992188 -8.789062 19.410156 -15.144531 14.671875 -23.25 C 9.941406 -31.351562 7.578125 -40.65625 7.578125 -51.15625 C 7.578125 -61.65625 9.941406 -70.925781 14.671875 -78.96875 C 19.410156 -87.007812 25.992188 -93.328125 34.421875 -97.921875 C 42.847656 -102.523438 52.507812 -104.828125 63.40625 -104.828125 C 72.875 -104.828125 81.460938 -103.109375 89.171875 -99.671875 C 96.890625 -96.242188 103.273438 -91.382812 108.328125 -85.09375 C 113.390625 -78.800781 116.695312 -71.441406 118.25 -63.015625 L 89.859375 -63.015625 C 87.390625 -68.203125 83.882812 -72.253906 79.34375 -75.171875 C 74.8125 -78.085938 69.628906 -79.546875 63.796875 -79.546875 C 55.890625 -79.546875 49.40625 -76.921875 44.34375 -71.671875 C 39.289062 -66.421875 36.765625 -59.582031 36.765625 -51.15625 C 36.765625 -42.851562 39.289062 -36.039062 44.34375 -30.71875 C 49.40625 -25.40625 55.890625 -22.75 63.796875 -22.75 C 70.015625 -22.75 75.488281 -24.398438 80.21875 -27.703125 C 84.957031 -31.015625 88.363281 -35.460938 90.4375 -41.046875 L 119.234375 -41.046875 C 117.410156 -32.097656 113.9375 -24.347656 108.8125 -17.796875 C 103.695312 -11.242188 97.25 -6.1875 89.46875 -2.625 C 81.6875 0.9375 73 2.71875 63.40625 2.71875 Z M 63.40625 2.71875 "/></g></g></g><g fill="#000000" fill-opacity="1"><g transform="translate(602.604968, 206.202053)"><g><path d="M 48.8125 1.9375 C 36.757812 1.9375 27.226562 -0.878906 20.21875 -6.515625 C 13.21875 -12.148438 9.71875 -19.898438 9.71875 -29.765625 C 9.71875 -39.222656 12.863281 -46.769531 19.15625 -52.40625 C 25.445312 -58.050781 33.910156 -60.875 44.546875 -60.875 L 81.5 -60.875 L 81.5 -65.546875 C 81.5 -70.597656 79.679688 -74.648438 76.046875 -77.703125 C 72.421875 -80.753906 67.6875 -82.28125 61.84375 -82.28125 C 57.050781 -82.28125 52.96875 -81.175781 49.59375 -78.96875 C 46.226562 -76.757812 44.085938 -73.84375 43.171875 -70.21875 L 14.78125 -70.21875 C 16.59375 -81.363281 21.613281 -89.914062 29.84375 -95.875 C 38.082031 -101.84375 48.6875 -104.828125 61.65625 -104.828125 C 76.957031 -104.828125 88.914062 -100.96875 97.53125 -93.25 C 106.15625 -85.539062 110.46875 -74.945312 110.46875 -61.46875 L 110.46875 0 L 88.5 0 L 85.1875 -11.859375 C 76.238281 -2.660156 64.113281 1.9375 48.8125 1.9375 Z M 38.90625 -30.921875 C 38.90625 -27.421875 40.425781 -24.597656 43.46875 -22.453125 C 46.519531 -20.316406 50.570312 -19.25 55.625 -19.25 C 63.019531 -19.25 69.144531 -21.390625 74 -25.671875 C 78.863281 -29.953125 81.425781 -35.53125 81.6875 -42.40625 L 53.6875 -42.40625 C 49.269531 -42.40625 45.703125 -41.363281 42.984375 -39.28125 C 40.265625 -37.207031 38.90625 -34.421875 38.90625 -30.921875 Z M 38.90625 -30.921875 "/></g></g></g><g fill="#000000" fill-opacity="1"><g transform="translate(725.92048, 206.202053)"><g><path d="M 14.78125 0 L 14.78125 -102.109375 L 36.765625 -102.109375 L 39.671875 -91.609375 C 43.429688 -96.015625 48.003906 -99.316406 53.390625 -101.515625 C 58.773438 -103.722656 64.707031 -104.828125 71.1875 -104.828125 C 86.226562 -104.828125 97.441406 -99.253906 104.828125 -88.109375 C 108.984375 -93.421875 114.203125 -97.535156 120.484375 -100.453125 C 126.773438 -103.367188 133.8125 -104.828125 141.59375 -104.828125 C 154.6875 -104.828125 165.09375 -100.773438 172.8125 -92.671875 C 180.53125 -84.566406 184.390625 -73.515625 184.390625 -59.515625 L 184.390625 0 L 154.828125 0 L 154.828125 -56.015625 C 154.828125 -63.273438 153.039062 -69.007812 149.46875 -73.21875 C 145.90625 -77.4375 141.078125 -79.546875 134.984375 -79.546875 C 128.628906 -79.546875 123.570312 -77.34375 119.8125 -72.9375 C 116.050781 -68.53125 114.171875 -62.628906 114.171875 -55.234375 L 114.171875 0 L 85 0 L 85 -56.015625 C 85 -63.273438 83.210938 -69.007812 79.640625 -73.21875 C 76.078125 -77.4375 71.25 -79.546875 65.15625 -79.546875 C 58.800781 -79.546875 53.742188 -77.34375 49.984375 -72.9375 C 46.222656 -68.53125 44.34375 -62.628906 44.34375 -55.234375 L 44.34375 0 Z M 14.78125 0 "/></g></g></g><g fill="#000000" fill-opacity="1"><g transform="translate(923.147543, 206.202053)"><g><path d="M 76.640625 2.71875 C 70.285156 2.71875 64.382812 1.78125 58.9375 -0.09375 C 53.488281 -1.976562 48.625 -4.601562 44.34375 -7.96875 L 44.34375 38.90625 L 14.78125 38.90625 L 14.78125 -102.109375 L 36.765625 -102.109375 L 40.0625 -90.4375 C 44.601562 -94.976562 49.984375 -98.507812 56.203125 -101.03125 C 62.429688 -103.5625 69.242188 -104.828125 76.640625 -104.828125 C 86.878906 -104.828125 95.890625 -102.523438 103.671875 -97.921875 C 111.453125 -93.328125 117.578125 -87.007812 122.046875 -78.96875 C 126.523438 -70.925781 128.765625 -61.65625 128.765625 -51.15625 C 128.765625 -40.65625 126.523438 -31.351562 122.046875 -23.25 C 117.578125 -15.144531 111.453125 -8.789062 103.671875 -4.1875 C 95.890625 0.414062 86.878906 2.71875 76.640625 2.71875 Z M 43.171875 -51.15625 C 43.171875 -42.851562 45.796875 -36.039062 51.046875 -30.71875 C 56.304688 -25.40625 63.082031 -22.75 71.375 -22.75 C 79.8125 -22.75 86.617188 -25.40625 91.796875 -30.71875 C 96.984375 -36.039062 99.578125 -42.851562 99.578125 -51.15625 C 99.578125 -59.445312 96.984375 -66.25 91.796875 -71.5625 C 86.617188 -76.882812 79.8125 -79.546875 71.375 -79.546875 C 63.082031 -79.546875 56.304688 -76.882812 51.046875 -71.5625 C 45.796875 -66.25 43.171875 -59.445312 43.171875 -51.15625 Z M 43.171875 -51.15625 "/></g></g></g><g fill="#000000" fill-opacity="1"><g transform="translate(1059.494862, 206.202053)"><g><path d="M 55.4375 2.71875 C 42.207031 2.71875 31.800781 -1.460938 24.21875 -9.828125 C 16.632812 -18.191406 12.84375 -29.4375 12.84375 -43.5625 L 12.84375 -102.109375 L 42.40625 -102.109375 L 42.40625 -46.484375 C 42.40625 -38.960938 44.1875 -33.125 47.75 -28.96875 C 51.3125 -24.820312 56.207031 -22.75 62.4375 -22.75 C 69.175781 -22.75 74.554688 -25.082031 78.578125 -29.75 C 82.597656 -34.425781 84.609375 -40.78125 84.609375 -48.8125 L 84.609375 -102.109375 L 114.171875 -102.109375 L 114.171875 0 L 92.1875 0 L 89.078125 -11.46875 C 85.054688 -6.675781 80.128906 -3.113281 74.296875 -0.78125 C 68.460938 1.550781 62.175781 2.71875 55.4375 2.71875 Z M 55.4375 2.71875 "/></g></g></g><g fill="#000000" fill-opacity="1"><g transform="translate(1188.450986, 206.202053)"><g><path d="M 54.078125 2.71875 C 44.734375 2.71875 36.59375 1.226562 29.65625 -1.75 C 22.71875 -4.726562 17.335938 -8.875 13.515625 -14.1875 C 9.691406 -19.507812 7.78125 -25.738281 7.78125 -32.875 L 36.765625 -32.875 C 36.890625 -28.71875 38.507812 -25.40625 41.625 -22.9375 C 44.738281 -20.476562 49.015625 -19.25 54.453125 -19.25 C 59.128906 -19.25 62.757812 -20.125 65.34375 -21.875 C 67.9375 -23.625 69.234375 -25.992188 69.234375 -28.984375 C 69.234375 -32.222656 67.484375 -34.910156 63.984375 -37.046875 C 60.484375 -39.191406 54.78125 -40.910156 46.875 -42.203125 C 33.90625 -44.535156 24.375 -48.296875 18.28125 -53.484375 C 12.1875 -58.671875 9.140625 -65.476562 9.140625 -73.90625 C 9.140625 -83.894531 12.867188 -91.546875 20.328125 -96.859375 C 27.785156 -102.171875 38.382812 -104.828125 52.125 -104.828125 C 65.738281 -104.828125 76.398438 -101.910156 84.109375 -96.078125 C 91.828125 -90.242188 96.015625 -81.945312 96.671875 -71.1875 L 68.46875 -71.1875 C 68.207031 -75.070312 66.617188 -78.082031 63.703125 -80.21875 C 60.785156 -82.363281 56.863281 -83.4375 51.9375 -83.4375 C 47.519531 -83.4375 44.046875 -82.59375 41.515625 -80.90625 C 38.992188 -79.226562 37.734375 -76.894531 37.734375 -73.90625 C 37.734375 -70.789062 39.382812 -68.359375 42.6875 -66.609375 C 46 -64.859375 52 -63.078125 60.6875 -61.265625 C 85.84375 -56.210938 98.421875 -45.382812 98.421875 -28.78125 C 98.421875 -19.0625 94.492188 -11.378906 86.640625 -5.734375 C 78.796875 -0.0976562 67.941406 2.71875 54.078125 2.71875 Z M 54.078125 2.71875 "/></g></g></g></g></g></svg>